HIERARCHY
ROOT Hips
{
	OFFSET 0.00 0.00 0.00
	CHANNELS 6 Xposition Yposition Zposition Xrotation Yrotation Zrotation
	JOINT Spine
	{
		OFFSET 0.00000 3.24121 0.00000
		CHANNELS 3 Xrotation Yrotation Zrotation
		JOINT Head
		{
			OFFSET 0.00000 18.38296 0.00000
			CHANNELS 3 Xrotation Yrotation Zrotation
			End Site
			{
				OFFSET 0.00000 4.52755 0.00000
			}
		}
		JOINT LeftShoulder
		{
			OFFSET 0.00000 12.82826 0.00000
			CHANNELS 3 Xrotation Yrotation Zrotation
			JOINT LeftArm
			{
				OFFSET 7.74805 0.00000 0.00000
				CHANNELS 3 Xrotation Yrotation Zrotation
				JOINT LeftForeArm
				{
					OFFSET 10.63561 0.00000 0.00000
					CHANNELS 3 Yrotation Zrotation Xrotation
					JOINT LeftHand
					{
						OFFSET 8.34675 0.00000 0.00000
						CHANNELS 3 Xrotation Yrotation Zrotation
						JOINT LeftHandThumb1
						{
							OFFSET 0.00000 0.00000 0.00000
							CHANNELS 3 Xrotation Zrotation Yrotation
							End Site
							{
								OFFSET 0.00000 0.00000 3.93700
							}
						}
						End Site
						{
							OFFSET 3.93700 0.00000 0.00000
						}
					}
				}
			}
		}
		JOINT RightShoulder
		{
			OFFSET 0.00000 12.82826 0.00000
			CHANNELS 3 Xrotation Yrotation Zrotation
			JOINT RightArm
			{
				OFFSET -7.74805 0.00000 0.00000
				CHANNELS 3 Xrotation Yrotation Zrotation
				JOINT RightForeArm
				{
					OFFSET -10.63561 0.00000 0.00000
					CHANNELS 3 Yrotation Zrotation Xrotation
					JOINT RightHand
					{
						OFFSET -8.34675 0.00000 0.00000
						CHANNELS 3 Xrotation Yrotation Zrotation
						JOINT RightHandThumb1
						{
							OFFSET 0.00000 0.00000 0.00000
							CHANNELS 3 Xrotation Zrotation Yrotation
							End Site
							{
								OFFSET 0.00000 0.00000 3.93700
							}
						}
						End Site
						{
							OFFSET -3.93700 0.00000 0.00000
						}
					}
				}
			}
		}
	}
	JOINT LeftUpLeg
	{
		OFFSET 3.43402 0.00000 0.00000
		CHANNELS 3 Xrotation Yrotation Zrotation
		JOINT LeftLeg
		{
			OFFSET 0.00000 -15.71302 0.00000
			CHANNELS 3 Xrotation Yrotation Zrotation
			JOINT LeftFoot
			{
				OFFSET 0.00000 -14.43512 0.00000
				CHANNELS 3 Xrotation Yrotation Zrotation
				JOINT LeftToeBase
				{
					OFFSET 0.00000 -1.27828 4.77061
					CHANNELS 3 Xrotation Yrotation Zrotation
					End Site
					{
						OFFSET 0.00000 0.00000 2.95275
					}
				}
			}
		}
	}
	JOINT RightUpLeg
	{
		OFFSET -3.43402 0.00000 0.00000
		CHANNELS 3 Xrotation Yrotation Zrotation
		JOINT RightLeg
		{
			OFFSET 0.00000 -15.71302 0.00000
			CHANNELS 3 Xrotation Yrotation Zrotation
			JOINT RightFoot
			{
				OFFSET 0.00000 -14.43512 0.00000
				CHANNELS 3 Xrotation Yrotation Zrotation
				JOINT RightToeBase
				{
					OFFSET 0.00000 -1.27828 4.77061
					CHANNELS 3 Xrotation Yrotation Zrotation
					End Site
					{
						OFFSET 0.00000 0.00000 2.95275
					}
				}
			}
		}
	}
}
MOTION
Frames: 13
Frame Time: 0.008333
 0.4831 32.5947 -7.9346 25.5715 -17.9443 1.6855 -27.0357 -7.2249 8.2198 17.3661 -20.0927 -5.6311 48.6669 19.2811 1.2164 -50.2081 -35.4219 -92.3130 -22.4239 -0.0000 13.5566 2.7981 18.1229 -8.9297 33.1476 -0.0000 26.2537 40.9919 -25.1127 -14.7381 -61.1980 -25.7549 68.1981 81.4254 0.0000 -22.3628 16.8466 16.0337 -47.6306 32.8623 0.0000 -24.3270 -23.8140 8.5285 -0.3948 7.1725 -0.0000 -0.0000 -10.4570 6.4523 9.6686 -0.5681 0.0000 0.0000 -109.6055 -14.7154 -14.3230 89.9979 -0.0000 0.0000 43.8111 -19.0670 23.4982 55.4436 -0.0000 0.0000
 0.4486 32.6186 -7.9138 25.5592 -17.7851 1.2387 -27.1329 -7.3625 8.4283 17.6463 -20.4301 -5.2525 48.6679 19.4472 1.3716 -50.1345 -35.4334 -92.3183 -22.6380 -0.0000 13.5838 2.8976 18.0583 -9.2738 33.1476 -0.0000 26.2537 41.1718 -25.0370 -14.5300 -61.2207 -25.9578 68.1953 81.4495 0.0000 -22.2163 16.8767 16.0773 -47.6092 32.8623 0.0000 -24.3270 -23.7928 8.4032 -0.0049 7.0534 -0.0000 -0.0000 -10.4215 6.3345 9.6477 -0.5144 -0.0000 0.0000 -109.0875 -13.5681 -14.3940 90.5530 0.0000 0.0000 43.6193 -18.9793 23.1647 55.7414 0.0000 -0.0000
 0.4154 32.6453 -7.8916 25.5888 -17.6611 0.7628 -27.2805 -7.4381 8.7045 17.9705 -20.8070 -4.8618 48.7184 19.5711 1.5158 -50.0998 -35.5321 -92.2802 -22.8250 -0.0000 13.4848 2.9175 18.0290 -9.3507 33.1476 -0.0000 26.2537 41.3632 -24.9966 -14.2759 -61.2283 -26.0255 68.1112 81.4489 0.0000 -21.9453 16.9533 15.9951 -47.8884 32.8623 0.0000 -24.3270 -23.8172 8.2301 0.4405 6.9460 0.0000 0.0000 -10.3322 6.1975 9.6966 -0.6456 -0.0000 0.0000 -108.5622 -12.4586 -14.4529 91.0519 -0.0000 -0.0000 43.5627 -18.8089 22.8107 54.9583 -0.0000 -0.0000
 0.3807 32.6707 -7.8701 25.6468 -17.5870 0.3530 -27.4527 -7.4789 8.9413 18.2682 -21.1567 -4.4843 48.7466 19.7304 1.6611 -50.0417 -35.6445 -92.2378 -22.9890 -0.0000 13.4214 2.7994 18.0268 -8.9790 33.1476 -0.0000 26.2537 41.4612 -24.9280 -14.0772 -61.1911 -26.2159 68.1075 81.4778 0.0000 -21.7174 16.8602 15.9101 -47.8699 32.8623 0.0000 -24.3270 -23.8558 8.0684 0.8654 6.8414 0.0000 0.0000 -10.2796 6.1044 9.6147 -0.6496 -0.0000 0.0000 -108.0475 -11.2690 -14.4162 91.5536 0.0000 -0.0000 43.5515 -18.6582 22.3978 54.3277 -0.0000 -0.0000
 0.3455 32.6965 -7.8471 25.7472 -17.4274 -0.0808 -27.6751 -7.6034 9.1634 18.5691 -21.5278 -4.0455 48.7399 19.9084 1.8275 -49.9855 -35.7840 -92.2371 -23.1356 -0.0000 13.4291 2.9316 17.9945 -9.4123 33.1476 -0.0000 26.2537 41.5619 -24.8523 -13.8411 -61.1332 -26.2347 67.9756 81.4374 0.0000 -21.6152 16.9027 15.9337 -47.9049 32.8623 0.0000 -24.3270 -23.9757 7.8452 1.3011 6.8064 0.0000 0.0000 -10.2335 5.9665 9.4867 -0.7118 -0.0000 -0.0000 -107.5512 -10.0708 -14.4843 92.0751 -0.0000 0.0000 43.7850 -18.5438 22.5800 54.9216 -0.0000 0.0000
 0.3077 32.7231 -7.8272 25.8698 -17.3136 -0.5084 -27.9086 -7.6989 9.3985 18.8825 -21.8906 -3.5835 48.7138 20.0631 2.0126 -49.8636 -35.9230 -92.2025 -23.3392 -0.0000 13.5512 2.9616 18.1376 -9.4360 33.1476 -0.0000 26.2537 41.6805 -24.7907 -13.5825 -61.1344 -26.3148 67.8953 81.4084 0.0000 -21.5202 16.8908 16.0161 -47.7404 32.8623 0.0000 -24.3270 -24.1192 7.6188 1.7606 6.7756 0.0000 0.0000 -10.2196 5.8743 9.3243 -0.6734 -0.0000 0.0000 -107.0569 -8.8554 -14.4811 92.6107 0.0000 0.0000 43.5720 -18.5116 22.1959 55.1404 0.0000 0.0000
 0.2719 32.7504 -7.8047 25.9946 -17.1643 -0.9564 -28.1398 -7.8712 9.6552 19.1687 -22.2417 -3.1661 48.7107 20.2490 2.1622 -49.7779 -36.0561 -92.1854 -23.4566 -0.0000 13.5660 3.0011 17.9107 -9.6746 33.1476 -0.0000 26.2537 41.8307 -24.7198 -13.3356 -61.1677 -26.2978 67.7834 81.3761 0.0000 -21.2087 16.7874 15.7467 -48.0260 32.8623 0.0000 -24.3270 -24.2095 7.1426 2.1982 6.6595 -0.0000 0.0000 -10.1794 5.9871 9.2103 -0.5930 -0.0000 0.0000 -106.5237 -7.6356 -14.5357 93.1213 0.0000 0.0000 43.4888 -18.4318 21.6655 55.1391 0.0000 -0.0000
 0.2332 32.7792 -7.7866 26.1834 -17.0522 -1.4201 -28.4246 -8.0020 9.9411 19.4588 -22.6081 -2.6650 48.7013 20.4247 2.3201 -49.7232 -36.1724 -92.1696 -23.5656 -0.0000 13.6052 2.9437 18.1603 -9.3688 33.1476 -0.0000 26.2537 41.9570 -24.6291 -13.0962 -61.1104 -26.3544 67.6123 81.3956 0.0000 -21.3345 16.8408 15.9351 -47.7914 32.8623 0.0000 -24.3270 -24.4142 6.8435 2.6952 6.6158 -0.0000 0.0000 -10.1414 5.9601 9.1934 -0.6141 -0.0000 0.0000 -105.9799 -6.3684 -14.5033 93.6055 0.0000 0.0000 43.4939 -18.3178 21.5056 55.0230 -0.0000 0.0000
 0.1955 32.8062 -7.7644 26.2204 -16.9221 -1.9141 -28.5405 -8.1508 10.2253 19.7106 -22.9234 -2.1809 48.7403 20.5941 2.4375 -49.6416 -36.5211 -92.0739 -23.7813 -0.0000 13.4698 2.9621 18.1500 -9.4312 33.1476 -0.0000 26.2537 42.0924 -24.5630 -12.8345 -61.0817 -26.3061 67.4606 81.4304 0.0000 -21.2629 16.8402 15.9426 -47.7774 32.8623 0.0000 -24.3270 -24.4721 6.5867 3.1619 6.5881 0.0000 -0.0000 -10.1309 5.9121 9.2285 -0.6406 -0.0000 -0.0000 -105.2653 -5.0726 -14.4791 94.1178 -0.0000 -0.0000 43.4369 -18.2410 21.0888 55.4216 0.0000 -0.0000
 0.1585 32.8345 -7.7404 26.2645 -16.8083 -2.4281 -28.6613 -8.2851 10.5525 19.9578 -23.3250 -1.6895 48.7106 20.7010 2.6301 -49.5252 -36.5214 -92.0483 -23.8650 -0.0000 13.6244 2.9995 18.0858 -9.5806 33.1476 -0.0000 26.2537 42.2629 -24.5241 -12.5551 -61.0951 -26.3122 67.3101 81.4733 0.0000 -21.1712 16.8206 15.9489 -47.7312 32.8623 0.0000 -24.3270 -24.5414 6.3377 3.6520 6.5720 0.0000 0.0000 -10.1293 5.8741 9.2439 -0.5491 0.0000 -0.0000 -104.5083 -3.7674 -14.4412 94.6375 -0.0000 0.0000 43.4418 -18.3647 21.3571 54.5261 -0.0000 0.0000
 0.1192 32.8647 -7.7184 26.3831 -16.6509 -2.9645 -28.8621 -8.5081 10.8849 20.2067 -23.6820 -1.2494 48.6591 20.8199 2.8630 -49.3793 -36.4312 -92.0505 -23.9348 -0.0000 13.7370 3.0111 18.1327 -9.5934 33.1476 -0.0000 26.2537 42.4981 -24.4585 -12.3077 -61.0851 -26.3128 67.1691 81.5679 0.0000 -21.1920 16.8414 15.9770 -47.7197 32.8623 0.0000 -24.3270 -24.7218 6.0482 4.1705 6.6152 0.0000 0.0000 -10.1090 5.7989 9.3374 -0.5863 -0.0000 0.0000 -103.7626 -2.4255 -14.4081 95.1973 0.0000 -0.0000 43.1222 -18.1772 20.7210 54.4685 -0.0000 -0.0000
 0.0789 32.8947 -7.6986 26.4556 -16.5400 -3.4871 -28.9998 -8.6982 11.2134 20.4266 -23.9404 -0.8124 48.7098 20.9800 3.0423 -49.4010 -36.3884 -92.0836 -23.8880 -0.0000 13.7526 2.9925 18.1418 -9.5307 33.1476 -0.0000 26.2537 42.7232 -24.3687 -12.0739 -61.0882 -26.3821 67.0462 81.6657 0.0000 -21.1116 16.8407 15.9866 -47.7017 32.8623 0.0000 -24.3270 -24.8600 5.7614 4.6796 6.6735 -0.0000 -0.0000 -10.1142 5.7833 9.4581 -0.5659 0.0000 0.0000 -102.9483 -1.0784 -14.3310 95.7392 0.0000 -0.0000 42.9279 -18.0710 20.0869 54.7782 -0.0000 0.0000
 0.0401 32.9261 -7.6797 26.5468 -16.3962 -4.0439 -29.1325 -8.9382 11.5774 20.6436 -24.3119 -0.3278 48.7003 21.1168 3.2373 -49.3287 -36.3731 -92.0840 -23.9127 -0.0000 13.8049 2.9579 18.1718 -9.4076 33.1476 -0.0000 26.2537 42.9199 -24.3226 -11.8325 -61.1101 -26.4199 66.9522 81.7314 0.0000 -21.0278 16.8359 15.9130 -47.8213 32.8623 0.0000 -24.3270 -25.0250 5.3495 5.2010 6.7591 0.0000 -0.0000 -10.0910 5.8265 9.5963 -0.6577 -0.0000 0.0000 -102.0977 0.2805 -14.2762 96.2771 -0.0000 0.0000 42.8319 -17.8126 19.3416 54.8106 0.0000 0.0000
